<svg xmlns="http://www.w3.org/2000/svg" width="1160" height="552" viewBox="0 0 1160 552" font-family="'Malgun Gothic','Segoe UI',sans-serif">
  <defs>
    <marker id="arw" markerWidth="9" markerHeight="9" refX="7" refY="3" orient="auto" markerUnits="strokeWidth"><path d="M0,0 L7,3 L0,6 Z" fill="#475569"/></marker>
    <marker id="arwg" markerWidth="9" markerHeight="9" refX="7" refY="3" orient="auto" markerUnits="strokeWidth"><path d="M0,0 L7,3 L0,6 Z" fill="#94a3b8"/></marker>
  </defs>
  <rect x="0" y="0" width="1160" height="552" fill="#ffffff"/>
  <text x="580" y="26" text-anchor="middle" font-size="19" font-weight="bold" fill="#0f172a">CareerTuner · AI 오케스트레이터 — 챗봇 인테이크 → 두뇌 → 오케 → 6파트</text>

  <!-- 범례 -->
  <line x1="20" y1="44" x2="44" y2="44" stroke="#16a34a" stroke-width="3"/><text x="50" y="48" font-size="10.5" fill="#334155">구현 완료</text>
  <line x1="120" y1="44" x2="144" y2="44" stroke="#94a3b8" stroke-width="2.5" stroke-dasharray="5 3"/><text x="150" y="48" font-size="10.5" fill="#334155">내가 만들 칸</text>
  <rect x="248" y="37" width="34" height="14" rx="7" fill="#16a34a"/><text x="265" y="48" text-anchor="middle" font-size="8" fill="#fff">자체</text>
  <text x="290" y="48" font-size="10.5" fill="#334155">= 자체 LLM 가동중</text>

  <!-- ── 세로: 입력 → 챗봇 → 두뇌 → 오케 ── -->
  <rect x="420" y="44" width="320" height="40" rx="9" fill="#fef3c7" stroke="#d97706" stroke-width="2"/>
  <text x="580" y="69" text-anchor="middle" font-size="12" font-weight="bold" fill="#92400e">사용자 요청  &#8220;면접 준비해줘&#8221;</text>
  <text x="968" y="62" text-anchor="middle" font-size="9.5" fill="#94a3b8">* 그 외 파트도 자체 LLM 전환 진행</text>
  <text x="968" y="75" text-anchor="middle" font-size="9.5" fill="#94a3b8">(OpenAI는 폴백)</text>
  <line x1="580" y1="84" x2="580" y2="98" stroke="#475569" stroke-width="2" marker-end="url(#arw)"/>

  <rect x="352" y="100" width="456" height="72" rx="10" fill="#faf5ff" stroke="#7c3aed" stroke-width="2.5" stroke-dasharray="7 4"/>
  <rect x="746" y="92" width="50" height="15" rx="7" fill="#16a34a"/><text x="771" y="103" text-anchor="middle" font-size="8.5" fill="#fff">자체</text>
  <text x="580" y="124" text-anchor="middle" font-size="13.5" font-weight="bold" fill="#5b21b6">💬 인테이크 챗봇 (F gemma4 엔진 재활용)</text>
  <text x="580" y="143" text-anchor="middle" font-size="10.5" fill="#6d28d9">엉성한 요청 → 대화로 슬롯 수집 (회사·직무·레벨)</text>
  <text x="580" y="161" text-anchor="middle" font-size="10" fill="#94a3b8">슬롯 완비 시 챗봇 스킵 → 두뇌 직행 ▶</text>

  <line x1="580" y1="172" x2="580" y2="186" stroke="#94a3b8" stroke-width="2" stroke-dasharray="6 3" marker-end="url(#arwg)"/>
  <path d="M420,64 Q330,64 330,222 Q330,238 360,238" fill="none" stroke="#cbd5e1" stroke-width="1.4" stroke-dasharray="4 3" marker-end="url(#arwg)"/>
  <text x="318" y="150" text-anchor="end" font-size="9" fill="#94a3b8">슬롯 완비 시</text>
  <text x="318" y="162" text-anchor="end" font-size="9" fill="#94a3b8">챗봇 스킵</text>

  <rect x="382" y="188" width="396" height="62" rx="10" fill="#faf5ff" stroke="#7c3aed" stroke-width="2.5" stroke-dasharray="7 4"/>
  <rect x="720" y="180" width="50" height="15" rx="7" fill="#16a34a"/><text x="745" y="191" text-anchor="middle" font-size="8.5" fill="#fff">자체</text>
  <text x="580" y="212" text-anchor="middle" font-size="13.5" font-weight="bold" fill="#5b21b6">🧠 두뇌 · Plan 생성 (Qwen)</text>
  <text x="580" y="232" text-anchor="middle" font-size="10.5" fill="#6d28d9">확정 슬롯 → 실행계획 (어느 파트 · 어떤 순서)</text>

  <line x1="580" y1="250" x2="580" y2="264" stroke="#475569" stroke-width="2" marker-end="url(#arw)"/>

  <rect x="360" y="266" width="440" height="58" rx="10" fill="#eff6ff" stroke="#2563eb" stroke-width="2.5" stroke-dasharray="7 4"/>
  <text x="580" y="290" text-anchor="middle" font-size="13.5" font-weight="bold" fill="#1d4ed8">⚙️ AutoPrepOrchestrator (ai/common)</text>
  <text x="580" y="310" text-anchor="middle" font-size="10.5" fill="#2563eb">6파트 순차 실행 + 진행 SSE + 단계별 폴백</text>
  <rect x="812" y="270" width="200" height="50" rx="9" fill="#f0fdf4" stroke="#16a34a" stroke-width="1.5"/>
  <text x="912" y="290" text-anchor="middle" font-size="10.5" font-weight="bold" fill="#15803d">장애·미완 시 폴백 ✅</text>
  <text x="912" y="307" text-anchor="middle" font-size="9.5" fill="#166534">자체 → Claude → OpenAI</text>
  <line x1="800" y1="295" x2="812" y2="295" stroke="#94a3b8" stroke-width="1.4" stroke-dasharray="4 3" marker-end="url(#arwg)"/>

  <!-- 오케 → 6칸 분기 -->
  <polyline points="580,324 580,342 110,342 110,358" fill="none" stroke="#475569" stroke-width="1.6" marker-end="url(#arw)"/>
  <line x1="298" y1="342" x2="298" y2="358" stroke="#475569" stroke-width="1.4"/>
  <line x1="486" y1="342" x2="486" y2="358" stroke="#475569" stroke-width="1.4"/>
  <line x1="674" y1="342" x2="674" y2="358" stroke="#475569" stroke-width="1.4"/>
  <line x1="862" y1="342" x2="862" y2="358" stroke="#475569" stroke-width="1.4"/>
  <line x1="1050" y1="342" x2="1050" y2="358" stroke="#475569" stroke-width="1.4"/>
  <line x1="110" y1="342" x2="1050" y2="342" stroke="#475569" stroke-width="1.4"/>

  <!-- ── 가로 6칸 ── -->
  <rect x="22" y="358" width="176" height="106" rx="10" fill="#ffffff" stroke="#16a34a" stroke-width="2"/>
  <text x="110" y="388" text-anchor="middle" font-size="13" font-weight="bold" fill="#15803d">① 프로필·스펙</text>
  <text x="110" y="411" text-anchor="middle" font-size="10.5" fill="#475569">(A) 신성륜</text>
  <text x="110" y="435" text-anchor="middle" font-size="10.5" fill="#16a34a">✅ AI 요약·역량·완성도</text>

  <rect x="210" y="358" width="176" height="106" rx="10" fill="#ffffff" stroke="#16a34a" stroke-width="2"/>
  <text x="298" y="386" text-anchor="middle" font-size="13" font-weight="bold" fill="#15803d">② 공고 분석</text>
  <text x="298" y="408" text-anchor="middle" font-size="10.5" fill="#475569">(B) 신상훈</text>
  <text x="298" y="430" text-anchor="middle" font-size="10.5" fill="#16a34a">✅ 공고·기업 분석</text>
  <text x="298" y="449" text-anchor="middle" font-size="9" fill="#15803d">QWEN 3B 전환 진행</text>

  <rect x="398" y="358" width="176" height="106" rx="10" fill="#f0fdf4" stroke="#16a34a" stroke-width="2.5"/>
  <rect x="516" y="350" width="44" height="15" rx="7" fill="#16a34a"/><text x="538" y="361" text-anchor="middle" font-size="8.5" fill="#fff">자체</text>
  <text x="486" y="386" text-anchor="middle" font-size="13" font-weight="bold" fill="#15803d">③ 적합도·전략</text>
  <text x="486" y="408" text-anchor="middle" font-size="10.5" fill="#166534">(C) 이정국</text>
  <text x="486" y="430" text-anchor="middle" font-size="10.5" font-weight="bold" fill="#16a34a">✅ 적합도 자체 LoRA</text>
  <text x="486" y="449" text-anchor="middle" font-size="9" fill="#166534">전략·대시보드</text>

  <rect x="586" y="358" width="176" height="106" rx="10" fill="#ffffff" stroke="#16a34a" stroke-width="2"/>
  <text x="674" y="388" text-anchor="middle" font-size="13" font-weight="bold" fill="#15803d">④ 자소서·답변 첨삭</text>
  <text x="674" y="411" text-anchor="middle" font-size="10.5" fill="#475569">(E) 박성호</text>
  <text x="674" y="435" text-anchor="middle" font-size="10.5" fill="#16a34a">✅ AI 첨삭</text>

  <rect x="774" y="358" width="176" height="106" rx="10" fill="#f0fdf4" stroke="#16a34a" stroke-width="3"/>
  <rect x="892" y="350" width="44" height="15" rx="7" fill="#16a34a"/><text x="914" y="361" text-anchor="middle" font-size="8.5" fill="#fff">자체</text>
  <text x="862" y="383" text-anchor="middle" font-size="13" font-weight="bold" fill="#15803d">⑤ 면접 풀세트</text>
  <text x="862" y="404" text-anchor="middle" font-size="9.5" fill="#166534">(D) 나</text>
  <text x="862" y="424" text-anchor="middle" font-size="9.5" font-weight="bold" fill="#16a34a">✅ 평가 OSS + LightGBM</text>
  <text x="862" y="443" text-anchor="middle" font-size="8.5" fill="#166534">기출 RAG · 꼬리 · 리포트</text>

  <rect x="962" y="358" width="176" height="106" rx="10" fill="#f0fdf4" stroke="#16a34a" stroke-width="2.5"/>
  <rect x="1080" y="350" width="44" height="15" rx="7" fill="#16a34a"/><text x="1102" y="361" text-anchor="middle" font-size="8.5" fill="#fff">자체</text>
  <text x="1050" y="383" text-anchor="middle" font-size="13" font-weight="bold" fill="#15803d">⑥ 커뮤니티·검열</text>
  <text x="1050" y="404" text-anchor="middle" font-size="9.5" fill="#166534">(F) 현정석</text>
  <text x="1050" y="424" text-anchor="middle" font-size="9.5" font-weight="bold" fill="#16a34a">✅ 글 추천 + 산출물 검열</text>
  <text x="1050" y="443" text-anchor="middle" font-size="8.5" fill="#166534">+ 입구 챗봇 엔진 · 기출 공급</text>

  <!-- 릴레이 -->
  <line x1="198" y1="411" x2="210" y2="411" stroke="#475569" stroke-width="1.8" marker-end="url(#arw)"/>
  <line x1="386" y1="411" x2="398" y2="411" stroke="#475569" stroke-width="1.8" marker-end="url(#arw)"/>
  <line x1="574" y1="411" x2="586" y2="411" stroke="#475569" stroke-width="1.8" marker-end="url(#arw)"/>
  <line x1="762" y1="411" x2="774" y2="411" stroke="#475569" stroke-width="1.8" marker-end="url(#arw)"/>
  <line x1="950" y1="411" x2="962" y2="411" stroke="#475569" stroke-width="1.8" marker-end="url(#arw)"/>

  <!-- 버스 → 프론트 -->
  <line x1="110" y1="464" x2="110" y2="482" stroke="#cbd5e1" stroke-width="1.3"/>
  <line x1="298" y1="464" x2="298" y2="482" stroke="#cbd5e1" stroke-width="1.3"/>
  <line x1="486" y1="464" x2="486" y2="482" stroke="#cbd5e1" stroke-width="1.3"/>
  <line x1="674" y1="464" x2="674" y2="482" stroke="#cbd5e1" stroke-width="1.3"/>
  <line x1="862" y1="464" x2="862" y2="482" stroke="#cbd5e1" stroke-width="1.3"/>
  <line x1="1050" y1="464" x2="1050" y2="482" stroke="#cbd5e1" stroke-width="1.3"/>
  <line x1="110" y1="482" x2="1050" y2="482" stroke="#cbd5e1" stroke-width="1.3" stroke-dasharray="6 4"/>
  <line x1="580" y1="482" x2="580" y2="506" stroke="#475569" stroke-width="2" marker-end="url(#arw)"/>
  <text x="596" y="500" font-size="10" fill="#64748b">각 단계 진행 SSE</text>

  <!-- 프론트 -->
  <rect x="415" y="508" width="350" height="40" rx="10" fill="#fef3c7" stroke="#d97706" stroke-width="2"/>
  <text x="590" y="533" text-anchor="middle" font-size="12.5" font-weight="bold" fill="#92400e">🖥 프론트 · AutoSetupPanel 타임라인 (실시간)</text>
</svg>
